<mxfile host="app.diagrams.net" modified="2023-11-15T09:00:21.864Z" agent="Mozilla/5.0 (X11; Linux x86_64) AppleWebKit/537.36 (KHTML, like Gecko) Chrome/119.0.0.0 Safari/537.36" etag="czUBjODY46no1IlvZ03r" version="21.6.5" type="github" pages="3">
  <diagram id="C5RBs43oDa-KdzZeNtuy" name="Page-1">
    <mxGraphModel dx="1395" dy="641" grid="1" gridSize="10" guides="1" tooltips="1" connect="1" arrows="1" fold="1" page="1" pageScale="1" pageWidth="827" pageHeight="1169" math="0" shadow="0">
      <root>
        <mxCell id="WIyWlLk6GJQsqaUBKTNV-0" />
        <mxCell id="WIyWlLk6GJQsqaUBKTNV-1" parent="WIyWlLk6GJQsqaUBKTNV-0" />
        <mxCell id="zkfFHV4jXpPFQw0GAbJ--0" value="Person" style="swimlane;fontStyle=2;align=center;verticalAlign=top;childLayout=stackLayout;horizontal=1;startSize=26;horizontalStack=0;resizeParent=1;resizeLast=0;collapsible=1;marginBottom=0;rounded=0;shadow=0;strokeWidth=1;" parent="WIyWlLk6GJQsqaUBKTNV-1" vertex="1">
          <mxGeometry x="100" y="110" width="160" height="138" as="geometry">
            <mxRectangle x="230" y="140" width="160" height="26" as="alternateBounds" />
          </mxGeometry>
        </mxCell>
        <mxCell id="zkfFHV4jXpPFQw0GAbJ--1" value="Name" style="text;align=left;verticalAlign=top;spacingLeft=4;spacingRight=4;overflow=hidden;rotatable=0;points=[[0,0.5],[1,0.5]];portConstraint=eastwest;" parent="zkfFHV4jXpPFQw0GAbJ--0" vertex="1">
          <mxGeometry y="26" width="160" height="26" as="geometry" />
        </mxCell>
        <mxCell id="zkfFHV4jXpPFQw0GAbJ--2" value="Phone Number" style="text;align=left;verticalAlign=top;spacingLeft=4;spacingRight=4;overflow=hidden;rotatable=0;points=[[0,0.5],[1,0.5]];portConstraint=eastwest;rounded=0;shadow=0;html=0;" parent="zkfFHV4jXpPFQw0GAbJ--0" vertex="1">
          <mxGeometry y="52" width="160" height="26" as="geometry" />
        </mxCell>
        <mxCell id="zkfFHV4jXpPFQw0GAbJ--3" value="Email Address" style="text;align=left;verticalAlign=top;spacingLeft=4;spacingRight=4;overflow=hidden;rotatable=0;points=[[0,0.5],[1,0.5]];portConstraint=eastwest;rounded=0;shadow=0;html=0;" parent="zkfFHV4jXpPFQw0GAbJ--0" vertex="1">
          <mxGeometry y="78" width="160" height="26" as="geometry" />
        </mxCell>
        <mxCell id="zkfFHV4jXpPFQw0GAbJ--4" value="" style="line;html=1;strokeWidth=1;align=left;verticalAlign=middle;spacingTop=-1;spacingLeft=3;spacingRight=3;rotatable=0;labelPosition=right;points=[];portConstraint=eastwest;" parent="zkfFHV4jXpPFQw0GAbJ--0" vertex="1">
          <mxGeometry y="104" width="160" height="8" as="geometry" />
        </mxCell>
        <mxCell id="zkfFHV4jXpPFQw0GAbJ--5" value="Purchase Parking Pass" style="text;align=left;verticalAlign=top;spacingLeft=4;spacingRight=4;overflow=hidden;rotatable=0;points=[[0,0.5],[1,0.5]];portConstraint=eastwest;" parent="zkfFHV4jXpPFQw0GAbJ--0" vertex="1">
          <mxGeometry y="112" width="160" height="26" as="geometry" />
        </mxCell>
        <mxCell id="zkfFHV4jXpPFQw0GAbJ--6" value="Student" style="swimlane;fontStyle=0;align=center;verticalAlign=top;childLayout=stackLayout;horizontal=1;startSize=26;horizontalStack=0;resizeParent=1;resizeLast=0;collapsible=1;marginBottom=0;rounded=0;shadow=0;strokeWidth=1;" parent="WIyWlLk6GJQsqaUBKTNV-1" vertex="1">
          <mxGeometry x="70" y="447" width="160" height="138" as="geometry">
            <mxRectangle x="130" y="380" width="160" height="26" as="alternateBounds" />
          </mxGeometry>
        </mxCell>
        <mxCell id="zkfFHV4jXpPFQw0GAbJ--7" value="Student Number" style="text;align=left;verticalAlign=top;spacingLeft=4;spacingRight=4;overflow=hidden;rotatable=0;points=[[0,0.5],[1,0.5]];portConstraint=eastwest;" parent="zkfFHV4jXpPFQw0GAbJ--6" vertex="1">
          <mxGeometry y="26" width="160" height="26" as="geometry" />
        </mxCell>
        <mxCell id="zkfFHV4jXpPFQw0GAbJ--8" value="Average Mark" style="text;align=left;verticalAlign=top;spacingLeft=4;spacingRight=4;overflow=hidden;rotatable=0;points=[[0,0.5],[1,0.5]];portConstraint=eastwest;rounded=0;shadow=0;html=0;" parent="zkfFHV4jXpPFQw0GAbJ--6" vertex="1">
          <mxGeometry y="52" width="160" height="26" as="geometry" />
        </mxCell>
        <mxCell id="zkfFHV4jXpPFQw0GAbJ--9" value="" style="line;html=1;strokeWidth=1;align=left;verticalAlign=middle;spacingTop=-1;spacingLeft=3;spacingRight=3;rotatable=0;labelPosition=right;points=[];portConstraint=eastwest;" parent="zkfFHV4jXpPFQw0GAbJ--6" vertex="1">
          <mxGeometry y="78" width="160" height="8" as="geometry" />
        </mxCell>
        <mxCell id="zkfFHV4jXpPFQw0GAbJ--10" value="Is Eligible To Enroll" style="text;align=left;verticalAlign=top;spacingLeft=4;spacingRight=4;overflow=hidden;rotatable=0;points=[[0,0.5],[1,0.5]];portConstraint=eastwest;fontStyle=4" parent="zkfFHV4jXpPFQw0GAbJ--6" vertex="1">
          <mxGeometry y="86" width="160" height="26" as="geometry" />
        </mxCell>
        <mxCell id="zkfFHV4jXpPFQw0GAbJ--11" value="Get Seminars Taken" style="text;align=left;verticalAlign=top;spacingLeft=4;spacingRight=4;overflow=hidden;rotatable=0;points=[[0,0.5],[1,0.5]];portConstraint=eastwest;" parent="zkfFHV4jXpPFQw0GAbJ--6" vertex="1">
          <mxGeometry y="112" width="160" height="26" as="geometry" />
        </mxCell>
        <mxCell id="zkfFHV4jXpPFQw0GAbJ--12" value="" style="endArrow=block;endSize=10;endFill=0;shadow=0;strokeWidth=1;rounded=0;edgeStyle=elbowEdgeStyle;elbow=vertical;" parent="WIyWlLk6GJQsqaUBKTNV-1" source="zkfFHV4jXpPFQw0GAbJ--6" target="zkfFHV4jXpPFQw0GAbJ--0" edge="1">
          <mxGeometry width="160" relative="1" as="geometry">
            <mxPoint x="200" y="203" as="sourcePoint" />
            <mxPoint x="200" y="203" as="targetPoint" />
          </mxGeometry>
        </mxCell>
        <mxCell id="zkfFHV4jXpPFQw0GAbJ--13" value="Professor" style="swimlane;fontStyle=0;align=center;verticalAlign=top;childLayout=stackLayout;horizontal=1;startSize=26;horizontalStack=0;resizeParent=1;resizeLast=0;collapsible=1;marginBottom=0;rounded=0;shadow=0;strokeWidth=1;" parent="WIyWlLk6GJQsqaUBKTNV-1" vertex="1">
          <mxGeometry x="400" y="560" width="160" height="70" as="geometry">
            <mxRectangle x="340" y="380" width="170" height="26" as="alternateBounds" />
          </mxGeometry>
        </mxCell>
        <mxCell id="zkfFHV4jXpPFQw0GAbJ--14" value="Salary" style="text;align=left;verticalAlign=top;spacingLeft=4;spacingRight=4;overflow=hidden;rotatable=0;points=[[0,0.5],[1,0.5]];portConstraint=eastwest;" parent="zkfFHV4jXpPFQw0GAbJ--13" vertex="1">
          <mxGeometry y="26" width="160" height="26" as="geometry" />
        </mxCell>
        <mxCell id="zkfFHV4jXpPFQw0GAbJ--15" value="" style="line;html=1;strokeWidth=1;align=left;verticalAlign=middle;spacingTop=-1;spacingLeft=3;spacingRight=3;rotatable=0;labelPosition=right;points=[];portConstraint=eastwest;" parent="zkfFHV4jXpPFQw0GAbJ--13" vertex="1">
          <mxGeometry y="52" width="160" height="8" as="geometry" />
        </mxCell>
        <mxCell id="zkfFHV4jXpPFQw0GAbJ--16" value="" style="endArrow=block;endSize=10;endFill=0;shadow=0;strokeWidth=1;rounded=0;edgeStyle=elbowEdgeStyle;elbow=vertical;" parent="WIyWlLk6GJQsqaUBKTNV-1" source="zkfFHV4jXpPFQw0GAbJ--13" target="zkfFHV4jXpPFQw0GAbJ--0" edge="1">
          <mxGeometry width="160" relative="1" as="geometry">
            <mxPoint x="210" y="373" as="sourcePoint" />
            <mxPoint x="310" y="271" as="targetPoint" />
          </mxGeometry>
        </mxCell>
        <mxCell id="zkfFHV4jXpPFQw0GAbJ--17" value="Address" style="swimlane;fontStyle=0;align=center;verticalAlign=top;childLayout=stackLayout;horizontal=1;startSize=26;horizontalStack=0;resizeParent=1;resizeLast=0;collapsible=1;marginBottom=0;rounded=0;shadow=0;strokeWidth=1;" parent="WIyWlLk6GJQsqaUBKTNV-1" vertex="1">
          <mxGeometry x="550" y="180" width="160" height="216" as="geometry">
            <mxRectangle x="550" y="140" width="160" height="26" as="alternateBounds" />
          </mxGeometry>
        </mxCell>
        <mxCell id="zkfFHV4jXpPFQw0GAbJ--18" value="Street" style="text;align=left;verticalAlign=top;spacingLeft=4;spacingRight=4;overflow=hidden;rotatable=0;points=[[0,0.5],[1,0.5]];portConstraint=eastwest;" parent="zkfFHV4jXpPFQw0GAbJ--17" vertex="1">
          <mxGeometry y="26" width="160" height="26" as="geometry" />
        </mxCell>
        <mxCell id="zkfFHV4jXpPFQw0GAbJ--19" value="City" style="text;align=left;verticalAlign=top;spacingLeft=4;spacingRight=4;overflow=hidden;rotatable=0;points=[[0,0.5],[1,0.5]];portConstraint=eastwest;rounded=0;shadow=0;html=0;" parent="zkfFHV4jXpPFQw0GAbJ--17" vertex="1">
          <mxGeometry y="52" width="160" height="26" as="geometry" />
        </mxCell>
        <mxCell id="zkfFHV4jXpPFQw0GAbJ--20" value="State" style="text;align=left;verticalAlign=top;spacingLeft=4;spacingRight=4;overflow=hidden;rotatable=0;points=[[0,0.5],[1,0.5]];portConstraint=eastwest;rounded=0;shadow=0;html=0;" parent="zkfFHV4jXpPFQw0GAbJ--17" vertex="1">
          <mxGeometry y="78" width="160" height="26" as="geometry" />
        </mxCell>
        <mxCell id="zkfFHV4jXpPFQw0GAbJ--21" value="Postal Code" style="text;align=left;verticalAlign=top;spacingLeft=4;spacingRight=4;overflow=hidden;rotatable=0;points=[[0,0.5],[1,0.5]];portConstraint=eastwest;rounded=0;shadow=0;html=0;" parent="zkfFHV4jXpPFQw0GAbJ--17" vertex="1">
          <mxGeometry y="104" width="160" height="26" as="geometry" />
        </mxCell>
        <mxCell id="zkfFHV4jXpPFQw0GAbJ--22" value="Country" style="text;align=left;verticalAlign=top;spacingLeft=4;spacingRight=4;overflow=hidden;rotatable=0;points=[[0,0.5],[1,0.5]];portConstraint=eastwest;rounded=0;shadow=0;html=0;" parent="zkfFHV4jXpPFQw0GAbJ--17" vertex="1">
          <mxGeometry y="130" width="160" height="26" as="geometry" />
        </mxCell>
        <mxCell id="zkfFHV4jXpPFQw0GAbJ--23" value="" style="line;html=1;strokeWidth=1;align=left;verticalAlign=middle;spacingTop=-1;spacingLeft=3;spacingRight=3;rotatable=0;labelPosition=right;points=[];portConstraint=eastwest;" parent="zkfFHV4jXpPFQw0GAbJ--17" vertex="1">
          <mxGeometry y="156" width="160" height="8" as="geometry" />
        </mxCell>
        <mxCell id="zkfFHV4jXpPFQw0GAbJ--24" value="Validate" style="text;align=left;verticalAlign=top;spacingLeft=4;spacingRight=4;overflow=hidden;rotatable=0;points=[[0,0.5],[1,0.5]];portConstraint=eastwest;" parent="zkfFHV4jXpPFQw0GAbJ--17" vertex="1">
          <mxGeometry y="164" width="160" height="26" as="geometry" />
        </mxCell>
        <mxCell id="zkfFHV4jXpPFQw0GAbJ--25" value="Output As Label" style="text;align=left;verticalAlign=top;spacingLeft=4;spacingRight=4;overflow=hidden;rotatable=0;points=[[0,0.5],[1,0.5]];portConstraint=eastwest;" parent="zkfFHV4jXpPFQw0GAbJ--17" vertex="1">
          <mxGeometry y="190" width="160" height="26" as="geometry" />
        </mxCell>
        <mxCell id="zkfFHV4jXpPFQw0GAbJ--26" value="" style="endArrow=open;shadow=0;strokeWidth=1;rounded=0;endFill=1;edgeStyle=elbowEdgeStyle;elbow=vertical;" parent="WIyWlLk6GJQsqaUBKTNV-1" source="zkfFHV4jXpPFQw0GAbJ--0" target="zkfFHV4jXpPFQw0GAbJ--17" edge="1">
          <mxGeometry x="0.5" y="41" relative="1" as="geometry">
            <mxPoint x="380" y="192" as="sourcePoint" />
            <mxPoint x="540" y="192" as="targetPoint" />
            <mxPoint x="-40" y="32" as="offset" />
          </mxGeometry>
        </mxCell>
        <mxCell id="zkfFHV4jXpPFQw0GAbJ--27" value="0..1" style="resizable=0;align=left;verticalAlign=bottom;labelBackgroundColor=none;fontSize=12;" parent="zkfFHV4jXpPFQw0GAbJ--26" connectable="0" vertex="1">
          <mxGeometry x="-1" relative="1" as="geometry">
            <mxPoint y="4" as="offset" />
          </mxGeometry>
        </mxCell>
        <mxCell id="zkfFHV4jXpPFQw0GAbJ--28" value="1" style="resizable=0;align=right;verticalAlign=bottom;labelBackgroundColor=none;fontSize=12;" parent="zkfFHV4jXpPFQw0GAbJ--26" connectable="0" vertex="1">
          <mxGeometry x="1" relative="1" as="geometry">
            <mxPoint x="-7" y="4" as="offset" />
          </mxGeometry>
        </mxCell>
        <mxCell id="zkfFHV4jXpPFQw0GAbJ--29" value="lives at" style="text;html=1;resizable=0;points=[];;align=center;verticalAlign=middle;labelBackgroundColor=none;rounded=0;shadow=0;strokeWidth=1;fontSize=12;" parent="zkfFHV4jXpPFQw0GAbJ--26" vertex="1" connectable="0">
          <mxGeometry x="0.5" y="49" relative="1" as="geometry">
            <mxPoint x="-38" y="40" as="offset" />
          </mxGeometry>
        </mxCell>
      </root>
    </mxGraphModel>
  </diagram>
  <diagram id="UTB4EYWl274V3Z_KseCF" name="Page-2">
    <mxGraphModel dx="1969" dy="905" grid="1" gridSize="10" guides="1" tooltips="1" connect="1" arrows="1" fold="1" page="1" pageScale="1" pageWidth="827" pageHeight="1169" math="0" shadow="0">
      <root>
        <mxCell id="0" />
        <mxCell id="1" parent="0" />
      </root>
    </mxGraphModel>
  </diagram>
  <diagram id="rkufCUoqwqWmJxQ9hsRy" name="Page-3">
    <mxGraphModel dx="1674" dy="769" grid="1" gridSize="10" guides="1" tooltips="1" connect="1" arrows="1" fold="1" page="1" pageScale="1" pageWidth="827" pageHeight="1169" math="0" shadow="0">
      <root>
        <mxCell id="0" />
        <mxCell id="1" parent="0" />
        <mxCell id="vBM_sxkYN4RynrRd4Gv9-1" value="&lt;font style=&quot;font-size: 18px;&quot;&gt;PENDING INTERVIEW: Nuevas cards que lllegan de selección&lt;/font&gt;" style="rounded=0;whiteSpace=wrap;html=1;strokeColor=#FF66FF;" vertex="1" parent="1">
          <mxGeometry x="40" y="20" width="640" height="90" as="geometry" />
        </mxCell>
        <mxCell id="vBM_sxkYN4RynrRd4Gv9-42" style="edgeStyle=orthogonalEdgeStyle;rounded=0;orthogonalLoop=1;jettySize=auto;html=1;entryX=0.5;entryY=0;entryDx=0;entryDy=0;" edge="1" parent="1" source="vBM_sxkYN4RynrRd4Gv9-2" target="vBM_sxkYN4RynrRd4Gv9-19">
          <mxGeometry relative="1" as="geometry" />
        </mxCell>
        <mxCell id="vBM_sxkYN4RynrRd4Gv9-2" value="&lt;font style=&quot;font-size: 18px;&quot;&gt;IN CODINATION: Pendiente de realizar entrevista (recordatorios manuales y autpomáticos)&lt;/font&gt;" style="rounded=0;whiteSpace=wrap;html=1;strokeColor=#66B2FF;" vertex="1" parent="1">
          <mxGeometry x="40" y="340" width="640" height="90" as="geometry" />
        </mxCell>
        <mxCell id="vBM_sxkYN4RynrRd4Gv9-48" style="edgeStyle=orthogonalEdgeStyle;rounded=0;orthogonalLoop=1;jettySize=auto;html=1;entryX=0.5;entryY=0;entryDx=0;entryDy=0;" edge="1" parent="1" source="vBM_sxkYN4RynrRd4Gv9-3" target="vBM_sxkYN4RynrRd4Gv9-47">
          <mxGeometry relative="1" as="geometry" />
        </mxCell>
        <mxCell id="vBM_sxkYN4RynrRd4Gv9-3" value="&lt;font style=&quot;font-size: 18px;&quot;&gt;POST INTERVIEW: Coordinación llama a la cuidadora&lt;/font&gt;" style="rounded=0;whiteSpace=wrap;html=1;strokeColor=#FF9933;" vertex="1" parent="1">
          <mxGeometry x="40" y="860" width="640" height="100" as="geometry" />
        </mxCell>
        <mxCell id="vBM_sxkYN4RynrRd4Gv9-64" style="edgeStyle=orthogonalEdgeStyle;rounded=0;orthogonalLoop=1;jettySize=auto;html=1;entryX=0.5;entryY=0;entryDx=0;entryDy=0;" edge="1" parent="1" source="vBM_sxkYN4RynrRd4Gv9-4" target="vBM_sxkYN4RynrRd4Gv9-63">
          <mxGeometry relative="1" as="geometry" />
        </mxCell>
        <mxCell id="vBM_sxkYN4RynrRd4Gv9-4" value="&lt;font style=&quot;font-size: 18px;&quot;&gt;INCORPORATIONS: Chequeo de cláusulas de horarios y fecha de incorporación&lt;/font&gt;" style="rounded=0;whiteSpace=wrap;html=1;strokeColor=#66FF66;" vertex="1" parent="1">
          <mxGeometry x="40" y="1470" width="640" height="120" as="geometry" />
        </mxCell>
        <mxCell id="vBM_sxkYN4RynrRd4Gv9-75" style="edgeStyle=orthogonalEdgeStyle;rounded=0;orthogonalLoop=1;jettySize=auto;html=1;entryX=0.5;entryY=0;entryDx=0;entryDy=0;" edge="1" parent="1" source="vBM_sxkYN4RynrRd4Gv9-5" target="vBM_sxkYN4RynrRd4Gv9-70">
          <mxGeometry relative="1" as="geometry" />
        </mxCell>
        <mxCell id="vBM_sxkYN4RynrRd4Gv9-5" value="&lt;font style=&quot;font-size: 18px;&quot;&gt;NUEVA FILA: Seguimiento incoorporaciones (Recordatorios manueales y automáticos)&lt;/font&gt;" style="rounded=0;whiteSpace=wrap;html=1;strokeColor=#CCCCFF;" vertex="1" parent="1">
          <mxGeometry x="40" y="2080" width="640" height="130" as="geometry" />
        </mxCell>
        <mxCell id="vBM_sxkYN4RynrRd4Gv9-60" value="" style="edgeStyle=orthogonalEdgeStyle;rounded=0;orthogonalLoop=1;jettySize=auto;html=1;" edge="1" parent="1" source="vBM_sxkYN4RynrRd4Gv9-8" target="vBM_sxkYN4RynrRd4Gv9-59">
          <mxGeometry relative="1" as="geometry" />
        </mxCell>
        <mxCell id="vBM_sxkYN4RynrRd4Gv9-62" value="" style="edgeStyle=orthogonalEdgeStyle;rounded=0;orthogonalLoop=1;jettySize=auto;html=1;" edge="1" parent="1" source="vBM_sxkYN4RynrRd4Gv9-8" target="vBM_sxkYN4RynrRd4Gv9-61">
          <mxGeometry relative="1" as="geometry" />
        </mxCell>
        <mxCell id="vBM_sxkYN4RynrRd4Gv9-8" value="&lt;font size=&quot;3&quot;&gt;¿selecciona fecha de entrevista?&lt;/font&gt;" style="rhombus;whiteSpace=wrap;html=1;" vertex="1" parent="1">
          <mxGeometry x="310" y="130" width="150" height="140" as="geometry" />
        </mxCell>
        <mxCell id="vBM_sxkYN4RynrRd4Gv9-17" style="edgeStyle=orthogonalEdgeStyle;rounded=0;orthogonalLoop=1;jettySize=auto;html=1;entryX=0.5;entryY=0;entryDx=0;entryDy=0;" edge="1" parent="1" source="vBM_sxkYN4RynrRd4Gv9-59" target="vBM_sxkYN4RynrRd4Gv9-2">
          <mxGeometry relative="1" as="geometry">
            <mxPoint x="230" y="215" as="sourcePoint" />
          </mxGeometry>
        </mxCell>
        <mxCell id="vBM_sxkYN4RynrRd4Gv9-14" style="edgeStyle=orthogonalEdgeStyle;rounded=0;orthogonalLoop=1;jettySize=auto;html=1;entryX=1;entryY=0.5;entryDx=0;entryDy=0;exitX=0.5;exitY=0;exitDx=0;exitDy=0;" edge="1" parent="1" source="vBM_sxkYN4RynrRd4Gv9-61" target="vBM_sxkYN4RynrRd4Gv9-1">
          <mxGeometry relative="1" as="geometry">
            <mxPoint x="585" y="185" as="sourcePoint" />
          </mxGeometry>
        </mxCell>
        <mxCell id="vBM_sxkYN4RynrRd4Gv9-25" value="" style="edgeStyle=orthogonalEdgeStyle;rounded=0;orthogonalLoop=1;jettySize=auto;html=1;" edge="1" parent="1" source="vBM_sxkYN4RynrRd4Gv9-19" target="vBM_sxkYN4RynrRd4Gv9-24">
          <mxGeometry relative="1" as="geometry" />
        </mxCell>
        <mxCell id="vBM_sxkYN4RynrRd4Gv9-27" value="" style="edgeStyle=orthogonalEdgeStyle;rounded=0;orthogonalLoop=1;jettySize=auto;html=1;exitX=0;exitY=0.5;exitDx=0;exitDy=0;" edge="1" parent="1" source="vBM_sxkYN4RynrRd4Gv9-19" target="vBM_sxkYN4RynrRd4Gv9-26">
          <mxGeometry relative="1" as="geometry" />
        </mxCell>
        <mxCell id="vBM_sxkYN4RynrRd4Gv9-37" value="" style="edgeStyle=orthogonalEdgeStyle;rounded=0;orthogonalLoop=1;jettySize=auto;html=1;exitX=1;exitY=0.5;exitDx=0;exitDy=0;" edge="1" parent="1" source="vBM_sxkYN4RynrRd4Gv9-19" target="vBM_sxkYN4RynrRd4Gv9-36">
          <mxGeometry relative="1" as="geometry" />
        </mxCell>
        <mxCell id="vBM_sxkYN4RynrRd4Gv9-19" value="&lt;font size=&quot;3&quot;&gt;¿Llamada de coordinación, check si la entrevista se realizo?&lt;/font&gt;" style="rhombus;whiteSpace=wrap;html=1;" vertex="1" parent="1">
          <mxGeometry x="281.88" y="510" width="156.25" height="200" as="geometry" />
        </mxCell>
        <mxCell id="vBM_sxkYN4RynrRd4Gv9-43" style="edgeStyle=orthogonalEdgeStyle;rounded=0;orthogonalLoop=1;jettySize=auto;html=1;" edge="1" parent="1" source="vBM_sxkYN4RynrRd4Gv9-24" target="vBM_sxkYN4RynrRd4Gv9-3">
          <mxGeometry relative="1" as="geometry" />
        </mxCell>
        <mxCell id="vBM_sxkYN4RynrRd4Gv9-24" value="&lt;font size=&quot;3&quot;&gt;Si, y acepta a la cuidadora&lt;/font&gt;" style="whiteSpace=wrap;html=1;" vertex="1" parent="1">
          <mxGeometry x="59.99499999999999" y="620" width="120" height="60" as="geometry" />
        </mxCell>
        <mxCell id="vBM_sxkYN4RynrRd4Gv9-46" style="edgeStyle=orthogonalEdgeStyle;rounded=0;orthogonalLoop=1;jettySize=auto;html=1;entryX=0;entryY=0.5;entryDx=0;entryDy=0;" edge="1" parent="1" source="vBM_sxkYN4RynrRd4Gv9-26" target="vBM_sxkYN4RynrRd4Gv9-2">
          <mxGeometry relative="1" as="geometry" />
        </mxCell>
        <mxCell id="vBM_sxkYN4RynrRd4Gv9-26" value="&lt;font size=&quot;3&quot;&gt;Si, y no acepta&lt;/font&gt;" style="whiteSpace=wrap;html=1;" vertex="1" parent="1">
          <mxGeometry x="50.005" y="520" width="120" height="60" as="geometry" />
        </mxCell>
        <mxCell id="vBM_sxkYN4RynrRd4Gv9-45" value="" style="edgeStyle=orthogonalEdgeStyle;rounded=0;orthogonalLoop=1;jettySize=auto;html=1;entryX=0.5;entryY=1;entryDx=0;entryDy=0;" edge="1" parent="1" source="vBM_sxkYN4RynrRd4Gv9-36" target="vBM_sxkYN4RynrRd4Gv9-58">
          <mxGeometry relative="1" as="geometry">
            <mxPoint x="730" y="510" as="targetPoint" />
          </mxGeometry>
        </mxCell>
        <mxCell id="vBM_sxkYN4RynrRd4Gv9-36" value="&lt;font size=&quot;3&quot;&gt;No se presento&amp;nbsp;&lt;/font&gt;" style="whiteSpace=wrap;html=1;" vertex="1" parent="1">
          <mxGeometry x="580.005" y="580" width="120" height="60" as="geometry" />
        </mxCell>
        <mxCell id="vBM_sxkYN4RynrRd4Gv9-51" value="" style="edgeStyle=orthogonalEdgeStyle;rounded=0;orthogonalLoop=1;jettySize=auto;html=1;" edge="1" parent="1" source="vBM_sxkYN4RynrRd4Gv9-47" target="vBM_sxkYN4RynrRd4Gv9-50">
          <mxGeometry relative="1" as="geometry" />
        </mxCell>
        <mxCell id="vBM_sxkYN4RynrRd4Gv9-53" value="" style="edgeStyle=orthogonalEdgeStyle;rounded=0;orthogonalLoop=1;jettySize=auto;html=1;" edge="1" parent="1" source="vBM_sxkYN4RynrRd4Gv9-47" target="vBM_sxkYN4RynrRd4Gv9-52">
          <mxGeometry relative="1" as="geometry" />
        </mxCell>
        <mxCell id="vBM_sxkYN4RynrRd4Gv9-47" value="&lt;font size=&quot;3&quot;&gt;Confirmar si acepta el puesta de trabajo&lt;/font&gt;" style="rhombus;whiteSpace=wrap;html=1;" vertex="1" parent="1">
          <mxGeometry x="275.94" y="1070" width="168.14" height="220" as="geometry" />
        </mxCell>
        <mxCell id="vBM_sxkYN4RynrRd4Gv9-54" style="edgeStyle=orthogonalEdgeStyle;rounded=0;orthogonalLoop=1;jettySize=auto;html=1;" edge="1" parent="1" source="vBM_sxkYN4RynrRd4Gv9-50" target="vBM_sxkYN4RynrRd4Gv9-4">
          <mxGeometry relative="1" as="geometry" />
        </mxCell>
        <mxCell id="vBM_sxkYN4RynrRd4Gv9-50" value="&lt;font size=&quot;3&quot;&gt;Si&amp;nbsp;&lt;/font&gt;" style="whiteSpace=wrap;html=1;" vertex="1" parent="1">
          <mxGeometry x="40.00499999999998" y="1150" width="120" height="60" as="geometry" />
        </mxCell>
        <mxCell id="vBM_sxkYN4RynrRd4Gv9-57" value="" style="edgeStyle=orthogonalEdgeStyle;rounded=0;orthogonalLoop=1;jettySize=auto;html=1;entryX=1;entryY=0.5;entryDx=0;entryDy=0;" edge="1" parent="1" source="vBM_sxkYN4RynrRd4Gv9-52" target="vBM_sxkYN4RynrRd4Gv9-58">
          <mxGeometry relative="1" as="geometry">
            <mxPoint x="1020" y="610" as="targetPoint" />
          </mxGeometry>
        </mxCell>
        <mxCell id="vBM_sxkYN4RynrRd4Gv9-52" value="&lt;font size=&quot;3&quot;&gt;No&lt;/font&gt;" style="whiteSpace=wrap;html=1;" vertex="1" parent="1">
          <mxGeometry x="600.005" y="1150" width="120" height="60" as="geometry" />
        </mxCell>
        <mxCell id="vBM_sxkYN4RynrRd4Gv9-58" value="&lt;font style=&quot;font-size: 18px;&quot;&gt;Reselección&lt;/font&gt;" style="rounded=0;whiteSpace=wrap;html=1;strokeColor=#EA6B66;" vertex="1" parent="1">
          <mxGeometry x="840" y="20" width="580" height="100" as="geometry" />
        </mxCell>
        <mxCell id="vBM_sxkYN4RynrRd4Gv9-59" value="&lt;font size=&quot;3&quot;&gt;SI&lt;/font&gt;" style="whiteSpace=wrap;html=1;" vertex="1" parent="1">
          <mxGeometry x="95" y="170" width="120" height="60" as="geometry" />
        </mxCell>
        <mxCell id="vBM_sxkYN4RynrRd4Gv9-61" value="&lt;font size=&quot;3&quot;&gt;NO&lt;/font&gt;" style="whiteSpace=wrap;html=1;" vertex="1" parent="1">
          <mxGeometry x="645" y="170" width="120" height="60" as="geometry" />
        </mxCell>
        <mxCell id="vBM_sxkYN4RynrRd4Gv9-66" value="" style="edgeStyle=orthogonalEdgeStyle;rounded=0;orthogonalLoop=1;jettySize=auto;html=1;" edge="1" parent="1" source="vBM_sxkYN4RynrRd4Gv9-63" target="vBM_sxkYN4RynrRd4Gv9-65">
          <mxGeometry relative="1" as="geometry" />
        </mxCell>
        <mxCell id="vBM_sxkYN4RynrRd4Gv9-68" value="" style="edgeStyle=orthogonalEdgeStyle;rounded=0;orthogonalLoop=1;jettySize=auto;html=1;" edge="1" parent="1" source="vBM_sxkYN4RynrRd4Gv9-63" target="vBM_sxkYN4RynrRd4Gv9-67">
          <mxGeometry relative="1" as="geometry" />
        </mxCell>
        <mxCell id="vBM_sxkYN4RynrRd4Gv9-63" value="&lt;font size=&quot;3&quot;&gt;Coordinación da el OK&lt;/font&gt;" style="rhombus;whiteSpace=wrap;html=1;" vertex="1" parent="1">
          <mxGeometry x="264.21999999999997" y="1670" width="191.56" height="220" as="geometry" />
        </mxCell>
        <mxCell id="vBM_sxkYN4RynrRd4Gv9-69" style="edgeStyle=orthogonalEdgeStyle;rounded=0;orthogonalLoop=1;jettySize=auto;html=1;entryX=0.5;entryY=0;entryDx=0;entryDy=0;" edge="1" parent="1" source="vBM_sxkYN4RynrRd4Gv9-65" target="vBM_sxkYN4RynrRd4Gv9-5">
          <mxGeometry relative="1" as="geometry" />
        </mxCell>
        <mxCell id="vBM_sxkYN4RynrRd4Gv9-82" style="edgeStyle=orthogonalEdgeStyle;rounded=0;orthogonalLoop=1;jettySize=auto;html=1;entryX=0.479;entryY=0.015;entryDx=0;entryDy=0;entryPerimeter=0;" edge="1" parent="1" source="vBM_sxkYN4RynrRd4Gv9-65" target="vBM_sxkYN4RynrRd4Gv9-78">
          <mxGeometry relative="1" as="geometry">
            <Array as="points">
              <mxPoint x="188" y="1940" />
              <mxPoint x="824" y="1940" />
            </Array>
          </mxGeometry>
        </mxCell>
        <mxCell id="vBM_sxkYN4RynrRd4Gv9-65" value="&lt;font style=&quot;font-size: 14px;&quot;&gt;SI&lt;/font&gt;" style="whiteSpace=wrap;html=1;" vertex="1" parent="1">
          <mxGeometry x="59.99" y="1750" width="120" height="60" as="geometry" />
        </mxCell>
        <mxCell id="vBM_sxkYN4RynrRd4Gv9-77" style="edgeStyle=orthogonalEdgeStyle;rounded=0;orthogonalLoop=1;jettySize=auto;html=1;entryX=1;entryY=0.5;entryDx=0;entryDy=0;" edge="1" parent="1" source="vBM_sxkYN4RynrRd4Gv9-67" target="vBM_sxkYN4RynrRd4Gv9-4">
          <mxGeometry relative="1" as="geometry" />
        </mxCell>
        <mxCell id="vBM_sxkYN4RynrRd4Gv9-67" value="&lt;font style=&quot;font-size: 14px;&quot;&gt;NO&lt;/font&gt;" style="whiteSpace=wrap;html=1;" vertex="1" parent="1">
          <mxGeometry x="720.01" y="1750" width="120" height="60" as="geometry" />
        </mxCell>
        <mxCell id="vBM_sxkYN4RynrRd4Gv9-72" value="" style="edgeStyle=orthogonalEdgeStyle;rounded=0;orthogonalLoop=1;jettySize=auto;html=1;" edge="1" parent="1" source="vBM_sxkYN4RynrRd4Gv9-70" target="vBM_sxkYN4RynrRd4Gv9-71">
          <mxGeometry relative="1" as="geometry" />
        </mxCell>
        <mxCell id="vBM_sxkYN4RynrRd4Gv9-74" value="" style="edgeStyle=orthogonalEdgeStyle;rounded=0;orthogonalLoop=1;jettySize=auto;html=1;" edge="1" parent="1" source="vBM_sxkYN4RynrRd4Gv9-70" target="vBM_sxkYN4RynrRd4Gv9-73">
          <mxGeometry relative="1" as="geometry" />
        </mxCell>
        <mxCell id="vBM_sxkYN4RynrRd4Gv9-70" value="&lt;font size=&quot;3&quot;&gt;¿Se incoorpora?&lt;/font&gt;" style="rhombus;whiteSpace=wrap;html=1;" vertex="1" parent="1">
          <mxGeometry x="272.59" y="2380" width="174.85" height="190" as="geometry" />
        </mxCell>
        <mxCell id="vBM_sxkYN4RynrRd4Gv9-76" style="edgeStyle=orthogonalEdgeStyle;rounded=0;orthogonalLoop=1;jettySize=auto;html=1;entryX=0.75;entryY=1;entryDx=0;entryDy=0;" edge="1" parent="1" source="vBM_sxkYN4RynrRd4Gv9-71" target="vBM_sxkYN4RynrRd4Gv9-58">
          <mxGeometry relative="1" as="geometry" />
        </mxCell>
        <mxCell id="vBM_sxkYN4RynrRd4Gv9-71" value="&lt;font style=&quot;font-size: 14px;&quot;&gt;NO&lt;/font&gt;" style="whiteSpace=wrap;html=1;" vertex="1" parent="1">
          <mxGeometry x="669.995" y="2445" width="120" height="60" as="geometry" />
        </mxCell>
        <mxCell id="vBM_sxkYN4RynrRd4Gv9-73" value="&lt;font style=&quot;font-size: 14px;&quot;&gt;SI&lt;/font&gt;" style="whiteSpace=wrap;html=1;" vertex="1" parent="1">
          <mxGeometry x="40.00499999999996" y="2445" width="120" height="60" as="geometry" />
        </mxCell>
        <mxCell id="vBM_sxkYN4RynrRd4Gv9-78" value="&lt;font style=&quot;font-size: 18px;&quot;&gt;WORKFLOW LABORAL&lt;/font&gt;" style="rounded=0;whiteSpace=wrap;html=1;" vertex="1" parent="1">
          <mxGeometry x="750" y="2080" width="280" height="130" as="geometry" />
        </mxCell>
      </root>
    </mxGraphModel>
  </diagram>
</mxfile>
